HIERARCHY
ROOT Hips
{
	OFFSET 0.000000 0.000000 0.000000 
	CHANNELS 6 Xposition Yposition Zposition Zrotation Yrotation Xrotation
	JOINT LeftUpLeg
	{
		OFFSET 1.363060 -1.794630 0.839290 
		CHANNELS 3 Zrotation Yrotation Xrotation
		JOINT LeftLeg
		{
			OFFSET 2.448110 -6.726130 0.000000 
			CHANNELS 3 Zrotation Yrotation Xrotation
			JOINT LeftFoot
			{
				OFFSET 2.562200 -7.039590 0.000000 
				CHANNELS 3 Zrotation Yrotation Xrotation
				JOINT LeftToeBase
				{
					OFFSET 0.157640 -0.433110 2.322550 
					CHANNELS 3 Zrotation Yrotation Xrotation
					End Site
					{
						OFFSET 0.000000 0.000000 0.000000 
					}
				}
			}
		}
	}
	JOINT RightUpLeg
	{
		OFFSET -1.305520 -1.794630 0.839290 
		CHANNELS 3 Zrotation Yrotation Xrotation
		JOINT RightLeg
		{
			OFFSET -2.542530 -6.985550 0.000000 
			CHANNELS 3 Zrotation Yrotation Xrotation
			JOINT RightFoot
			{
				OFFSET -2.568260 -7.056230 0.000000 
				CHANNELS 3 Zrotation Yrotation Xrotation
				JOINT RightToeBase
				{
					OFFSET -0.164730 -0.452590 2.363150 
					CHANNELS 3 Zrotation Yrotation Xrotation
					End Site
					{
						OFFSET 0.000000 0.000000 0.000000 
					}
				}
			}
		}
	}
	JOINT Spine
	{
		OFFSET 0.028270 2.035590 -0.193380 
		CHANNELS 3 Zrotation Yrotation Xrotation
		JOINT Spine1
		{
			OFFSET 0.056720 2.048850 -0.042750 
			CHANNELS 3 Zrotation Yrotation Xrotation
			JOINT Neck1
			{
				OFFSET -0.054170 1.746240 0.172020 
				CHANNELS 3 Zrotation Yrotation Xrotation
				JOINT Head
				{
					OFFSET 0.104070 1.761360 -0.123970 
					CHANNELS 3 Zrotation Yrotation Xrotation
					End Site
					{
						OFFSET 0.000000 0.000000 0.000000 
					}
				}
			}
			JOINT LeftArm
			{
				OFFSET 3.362410 1.200890 -0.311210 
				CHANNELS 3 Zrotation Yrotation Xrotation
				JOINT LeftForeArm
				{
					OFFSET 4.983000 -0.000000 -0.000000 
					CHANNELS 3 Zrotation Yrotation Xrotation
					JOINT LeftHand
					{
						OFFSET 3.483560 -0.000000 -0.000000 
						CHANNELS 3 Zrotation Yrotation Xrotation
						JOINT LeftHandIndex1
						{
							OFFSET 0.715260 -0.000000 -0.000000 
							CHANNELS 3 Zrotation Yrotation Xrotation
							End Site
							{
								OFFSET 0.000000 0.000000 0.000000 
							}
						}
					}
				}
			}
			JOINT RightArm
			{
				OFFSET -3.136600 1.374050 -0.404650 
				CHANNELS 3 Zrotation Yrotation Xrotation
				JOINT RightForeArm
				{
					OFFSET -5.241900 -0.000000 -0.000000 
					CHANNELS 3 Zrotation Yrotation Xrotation
					JOINT RightHand
					{
						OFFSET -3.444170 -0.000000 -0.000000 
						CHANNELS 3 Zrotation Yrotation Xrotation
						JOINT RightHandIndex1
						{
							OFFSET -0.622530 -0.000000 -0.000000 
							CHANNELS 3 Zrotation Yrotation Xrotation
							End Site
							{
								OFFSET 0.000000 0.000000 0.000000 
							}
						}
					}
				}
			}
		}
	}
}
MOTION
Frames: 12
Frame Time: 0.041667
1.670847 17.379758 30.780795 -179.581523 3.113870 -172.381482 -15.411185 -20.725924 -36.678870 1.173072 12.704735 30.175445 1.262040 13.092289 14.522784 0.165900 -2.624100 -7.233900 33.525237 -5.539908 16.043924 -2.395833 -8.954311 32.921261 -1.913476 -18.978953 20.404854 -0.638400 5.111900 -14.227900 -1.204456 9.972411 -3.703997 -2.085614 5.051663 10.401274 6.544193 -11.507865 13.031835 -1.191300 -3.952000 27.044300 -57.092745 37.328951 68.228134 120.861707 -57.578838 -82.222101 1.607975 -0.671442 17.174525 -7.125000 0.000000 0.000000 88.606120 1.696085 60.667504 -115.709768 54.521667 -72.425296 0.213541 -1.454091 6.450973 7.125000 0.000000 0.000000 
1.661776 17.396834 30.365431 -179.637704 3.318355 -172.470202 -15.293981 -20.904295 -36.170603 0.715287 11.781204 27.398620 1.288036 12.394987 14.210906 0.268300 -3.331800 -9.203900 33.122281 -5.728108 16.465593 -2.551144 -9.212754 34.111929 -1.862085 -21.915010 20.274150 -0.573200 4.848500 -13.477100 -1.287548 10.127320 -3.773515 -2.300054 5.164126 10.126838 6.731065 -11.845233 13.092518 -0.923100 -4.144500 27.166300 -56.352643 37.907169 68.468036 121.617116 -57.396567 -82.916347 1.627620 -0.679758 16.958184 -7.125000 0.000000 0.000000 88.733814 1.199891 60.927098 -115.624814 54.554492 -72.221299 0.246030 -1.443943 6.123861 7.125000 0.000000 0.000000 
1.651424 17.392351 29.958178 -179.712250 3.407417 -172.606655 -15.144967 -21.202525 -36.081031 0.484407 11.312419 26.040585 1.608984 12.491417 16.476040 0.334200 -3.715200 -10.276900 32.766353 -5.809273 16.501366 -2.912670 -9.737171 36.145264 -1.580574 -23.660121 18.500208 -0.571200 4.840100 -13.453000 -1.332155 10.205182 -3.812453 -2.400107 5.220664 9.989095 6.786843 -12.114610 13.256601 -0.830600 -4.287800 27.461600 -56.032010 38.304070 68.511427 122.075130 -57.290707 -83.327439 1.645648 -0.678049 17.156777 -7.125000 0.000000 0.000000 88.803864 0.741465 60.891496 -115.200227 54.707968 -71.653651 0.242953 -1.422375 6.359024 7.125000 0.000000 0.000000 
1.632000 17.345180 29.555621 -179.594502 3.434814 -173.088986 -15.652685 -20.535679 -35.031829 0.303689 10.799978 24.803729 1.932473 13.143127 18.859045 0.397600 -4.048300 -11.212700 32.652265 -5.800434 16.772540 -3.379330 -10.278203 38.223308 -1.506598 -22.793163 17.694585 -0.596300 4.943400 -13.747100 -1.270251 10.185316 -3.780739 -2.235638 5.193071 10.080357 6.706780 -11.897361 13.276314 -0.865400 -4.238400 27.428400 -56.532150 38.507105 68.188564 122.262219 -57.265580 -83.458023 1.662569 -0.674314 17.395194 -7.125000 0.000000 0.000000 88.728416 -0.015553 60.625017 -114.529586 54.944562 -70.905618 0.265227 -1.439138 5.963604 7.125000 0.000000 0.000000 
1.615138 17.295874 29.153811 -179.505852 3.461332 -173.477745 -15.929228 -20.124679 -34.598633 0.219788 10.571921 24.301585 2.222173 14.030775 20.872821 0.403100 -4.076000 -11.290600 32.534414 -5.746184 16.811663 -3.907902 -10.892359 40.646013 -1.369276 -22.815130 16.587086 -0.623800 5.054100 -14.062900 -1.230904 10.140491 -3.771699 -2.145224 5.163721 10.082767 6.692906 -11.777199 13.334492 -0.810800 -4.246600 27.467000 -56.886419 38.837069 67.890240 122.533223 -57.221370 -83.670927 1.678847 -0.669762 17.569943 -7.125000 0.000000 0.000000 88.698919 -0.716510 60.424745 -113.872469 55.175731 -70.140371 0.280793 -1.443116 5.820536 7.125000 0.000000 0.000000 
1.596995 17.228959 28.754989 -179.371009 3.434701 -173.941208 -16.397518 -19.383166 -34.247111 0.251458 10.612885 24.588186 2.439558 14.876979 22.465841 0.369700 -3.905300 -10.810400 32.500997 -5.644255 16.705105 -4.547172 -11.579152 43.411995 -1.268367 -22.314528 15.538475 -0.679100 5.269100 -14.677600 -1.160901 10.016095 -3.746933 -1.983195 5.084961 10.131982 6.667040 -11.539408 13.386717 -0.750400 -4.221800 27.467700 -57.549149 39.145844 67.421010 122.697894 -57.212598 -83.777527 1.694262 -0.661942 17.769263 -7.125000 0.000000 0.000000 88.639472 -1.513087 60.106913 -113.058858 55.458901 -69.220824 0.296568 -1.455149 5.676141 7.125000 0.000000 0.000000 
1.577892 17.145396 28.359048 -179.215866 3.353836 -174.465643 -17.088396 -18.289281 -33.870450 0.376378 10.832645 25.393144 2.505520 15.206187 23.159486 0.334500 -3.716900 -10.281600 32.499620 -5.540214 16.464146 -5.275809 -12.298394 46.426503 -1.202791 -21.576484 14.665675 -0.754800 5.548900 -15.481100 -1.070595 9.817069 -3.713089 -1.782673 4.963420 10.205783 6.635321 -11.205790 13.428048 -0.684500 -4.167400 27.428600 -58.465503 39.432795 66.797050 122.758170 -57.236593 -83.784505 1.707723 -0.650181 17.959636 -7.125000 0.000000 0.000000 88.575381 -2.422837 59.662071 -112.108853 55.786336 -68.166981 0.314420 -1.474581 5.526686 7.125000 0.000000 0.000000 
1.558362 17.046570 27.966630 -179.081161 3.217773 -175.030484 -17.940954 -16.985630 -33.539290 0.628138 11.281717 26.844739 2.371430 14.616874 22.632628 0.312800 -3.595400 -9.941000 32.467234 -5.449443 16.030362 -6.106032 -13.048397 49.735993 -1.150912 -20.833786 13.885295 -0.845000 5.863200 -16.388000 -0.971607 9.551151 -3.676503 -1.562320 4.805366 10.278529 6.615434 -10.840421 13.478458 -0.596900 -4.109100 27.410100 -59.583089 39.678919 66.051052 122.703868 -57.292379 -83.688408 1.718329 -0.634084 18.116373 -7.125000 0.000000 0.000000 88.524469 -3.458105 59.066328 -111.030374 56.154081 -66.986779 0.331724 -1.502832 5.505501 7.125000 0.000000 0.000000 
1.537871 16.932911 27.576666 -179.005582 3.059484 -175.647130 -18.908459 -15.617466 -33.166121 1.003023 11.906661 28.827115 2.048992 13.283950 20.877994 0.323600 -3.656700 -10.112700 32.325621 -5.383614 15.433963 -7.035212 -13.801234 53.304083 -1.107523 -20.226492 13.224251 -0.936000 6.162700 -17.257200 -0.879084 9.252509 -3.639624 -1.374216 4.634196 10.336747 6.606852 -10.501318 13.549344 -0.509900 -4.055100 27.438000 -60.801757 39.855752 65.230160 122.522812 -57.377816 -83.485601 1.726841 -0.614350 18.253478 -7.125000 0.000000 0.000000 88.532985 -4.642633 58.296593 -109.842278 56.555782 -65.698973 0.351285 -1.543985 5.595868 7.125000 0.000000 0.000000 
1.516206 16.808793 27.189903 -179.018525 2.879586 -176.308469 -19.915663 -14.383956 -32.725274 1.484502 12.654873 31.227701 1.573253 12.137480 17.926769 0.355700 -3.831600 -10.603300 32.032866 -5.350844 14.682411 -8.054945 -14.531241 57.079802 -1.067688 -19.841904 12.676729 -1.019400 6.423200 -18.017300 -0.797278 8.914458 -3.609222 -1.232282 4.449518 10.334678 6.629022 -10.177433 13.639138 -0.394600 -4.008700 27.491600 -62.126637 39.982363 64.329015 122.192863 -57.497374 -83.158826 1.731007 -0.591804 18.367679 -7.125000 0.000000 0.000000 88.605103 -5.996378 57.353003 -108.541053 56.991823 -64.298846 0.367858 -1.594257 5.838547 7.125000 0.000000 0.000000 
1.493475 16.677951 26.806769 -179.132438 2.678513 -177.004479 -20.909156 -13.463559 -32.202593 2.046665 13.472360 33.917930 1.038701 12.184474 14.152529 0.344500 -3.771700 -10.435100 31.581248 -5.340487 13.790800 -9.154782 -15.217319 61.012370 -1.023240 -19.737102 12.191656 -1.083800 6.616700 -18.584700 -0.731520 8.567648 -3.577858 -1.150572 4.267469 10.306755 6.664900 -9.898355 13.730355 -0.297500 -3.960300 27.495100 -63.507462 39.983294 63.377737 121.698242 -57.650993 -82.695028 1.729313 -0.565506 18.471107 -7.125000 0.000000 0.000000 88.773699 -7.482513 56.168304 -107.089783 57.475190 -62.755653 0.380866 -1.656236 6.300968 7.125000 0.000000 0.000000 
1.469889 16.545081 26.428972 -179.342499 2.453982 -177.717113 -21.872096 -12.920166 -31.599002 2.670644 14.312883 36.770575 0.514877 13.425298 10.026508 0.274700 -3.371300 -9.314200 30.997314 -5.326656 12.739522 -10.325971 -15.847179 65.062276 -0.970318 -19.892534 11.746044 -1.124200 6.734800 -18.932000 -0.677462 8.190687 -3.546077 -1.113012 4.075903 10.243612 6.732403 -9.634341 13.816767 -0.179500 -3.912400 27.416400 -65.019510 39.866510 62.323383 121.007705 -57.847264 -82.063886 1.721657 -0.535067 18.567699 -7.125000 0.000000 0.000000 89.014608 -9.059182 54.765754 -105.435436 58.019521 -61.025430 0.387349 -1.729950 6.885782 7.125000 0.000000 0.000000 
